<svg width="42" height="42" viewBox="0 0 42 42" fill="none" xmlns="http://www.w3.org/2000/svg">
<path d="M28 36.75V33.25C28 31.3935 27.2625 29.613 25.9497 28.3003C24.637 26.9875 22.8565 26.25 21 26.25H10.5C8.64348 26.25 6.86301 26.9875 5.55025 28.3003C4.2375 29.613 3.5 31.3935 3.5 33.25V36.75" stroke="white" stroke-width="2" stroke-linecap="round" stroke-linejoin="round"/>
<path d="M15.75 19.25C19.616 19.25 22.75 16.116 22.75 12.25C22.75 8.38401 19.616 5.25 15.75 5.25C11.884 5.25 8.75 8.38401 8.75 12.25C8.75 16.116 11.884 19.25 15.75 19.25Z" stroke="white" stroke-width="2" stroke-linecap="round" stroke-linejoin="round"/>
<path d="M38.5 36.75V33.25C38.4988 31.699 37.9826 30.1924 37.0324 28.9666C36.0822 27.7408 34.7517 26.8653 33.25 26.4775" stroke="white" stroke-width="2" stroke-linecap="round" stroke-linejoin="round"/>
<path d="M28 5.47751C29.5057 5.86304 30.8403 6.73874 31.7934 7.96655C32.7464 9.19437 33.2637 10.7045 33.2637 12.2588C33.2637 13.8131 32.7464 15.3231 31.7934 16.551C30.8403 17.7788 29.5057 18.6545 28 19.04" stroke="white" stroke-width="2" stroke-linecap="round" stroke-linejoin="round"/>
</svg>
