<svg width="49" height="49" viewBox="0 0 49 49" fill="none" xmlns="http://www.w3.org/2000/svg">
<path d="M24.5 6.12499V4.08333" stroke="white" stroke-width="2" stroke-linecap="round" stroke-linejoin="round"/>
<path d="M31.4417 35.525L37.975 29.8083C38.3638 29.433 38.8227 29.1379 39.3255 28.9398C39.8283 28.7418 40.3652 28.6448 40.9055 28.6543C41.4458 28.6638 41.979 28.7796 42.4746 28.9951C42.9701 29.2106 43.4184 29.5217 43.7937 29.9104C44.1691 30.2992 44.4642 30.7581 44.6622 31.2609C44.8602 31.7637 44.9573 32.3006 44.9478 32.8409C44.9383 33.3813 44.8225 33.9144 44.607 34.41C44.3915 34.9055 44.0804 35.3538 43.6917 35.7292L36.3417 42.4667C34.9125 44.1 32.8708 44.9167 30.625 44.9167H22.4583C20.2125 44.9167 18.1708 44.1 16.7417 42.4667L14.0834 39.4777C13.892 39.2621 13.6572 39.0896 13.3943 38.9714C13.1314 38.8531 12.8465 38.7919 12.5583 38.7917H10.2083" stroke="white" stroke-width="2" stroke-linecap="round" stroke-linejoin="round"/>
<path d="M4.08333 28.5833H28.5833C29.6663 28.5833 30.7049 29.0135 31.4707 29.7793C32.2365 30.5451 32.6667 31.5837 32.6667 32.6667C32.6667 33.7496 32.2365 34.7882 31.4707 35.554C30.7049 36.3198 29.6663 36.75 28.5833 36.75H24.5" stroke="white" stroke-width="2" stroke-linecap="round" stroke-linejoin="round"/>
<path d="M8.16667 20.4167H40.8333" stroke="white" stroke-width="2" stroke-linecap="round" stroke-linejoin="round"/>
<path d="M10.2083 20.4167C10.2083 16.6263 11.7141 12.9911 14.3943 10.3109C17.0745 7.63072 20.7096 6.125 24.5 6.125C28.2904 6.125 31.9255 7.63072 34.6057 10.3109C37.2859 12.9911 38.7917 16.6263 38.7917 20.4167" stroke="white" stroke-width="2" stroke-linecap="round" stroke-linejoin="round"/>
<path d="M10.2083 28.5833V40.8333C10.2083 41.3748 9.99323 41.8941 9.61034 42.277C9.22746 42.6599 8.70815 42.875 8.16667 42.875H4.08333" stroke="white" stroke-width="2" stroke-linecap="round" stroke-linejoin="round"/>
</svg>
