<svg width="48" height="48" viewBox="0 0 48 48" fill="none" xmlns="http://www.w3.org/2000/svg">
<path d="M14 40H34" stroke="white" stroke-width="2" stroke-linecap="round" stroke-linejoin="round"/>
<path d="M20 40C31 35 21.6 27.2 26 20" stroke="white" stroke-width="2" stroke-linecap="round" stroke-linejoin="round"/>
<path d="M19 18.8C21.2 20.4 22.6 23.2 23.6 26.2C19.6 27 16.6 27 14 25.6C11.6 24.4 9.4 21.8 8 17.2C13.6 16.2 16.8 17.2 19 18.8Z" stroke="white" stroke-width="2" stroke-linecap="round" stroke-linejoin="round"/>
<path d="M28.2 12C26.6752 14.3831 25.9081 17.1723 26 20C29.8 19.8 32.6 18.8 34.6 17.2C36.6 15.2 37.8 12.6 38 8C32.6 8.2 30 10 28.2 12Z" stroke="white" stroke-width="2" stroke-linecap="round" stroke-linejoin="round"/>
</svg>
